<svg xmlns="http://www.w3.org/2000/svg" xmlns:xlink="http://www.w3.org/1999/xlink" width="1080" zoomAndPan="magnify" viewBox="0 0 810 202.499994" height="270" preserveAspectRatio="xMidYMid meet" version="1.0"><defs><clipPath id="2b89b2b7a8"><path d="M 0.996094 0 L 809 0 L 809 193 L 0.996094 193 Z M 0.996094 0 " clip-rule="nonzero"/></clipPath><clipPath id="f145d74b49"><path d="M 912.308594 -345.332031 L 762.140625 341.710938 L -71.8125 159.429688 L 78.355469 -527.613281 Z M 912.308594 -345.332031 " clip-rule="nonzero"/></clipPath><clipPath id="deb5f34f3b"><path d="M 912.308594 -345.332031 L 762.140625 341.710938 L -71.8125 159.429688 L 78.355469 -527.613281 Z M 912.308594 -345.332031 " clip-rule="nonzero"/></clipPath></defs><g clip-path="url(#2b89b2b7a8)"><g clip-path="url(#f145d74b49)"><g clip-path="url(#deb5f34f3b)"><path fill="#673ab7" d="M 820.105469 34.617188 C 820.011719 35.046875 819.964844 35.265625 820.085938 35.746094 C 812.949219 106.808594 745.894531 143.667969 682.125 115.660156 C 635.742188 95.308594 598.273438 58.070312 545.199219 83.914062 C 521.554688 95.539062 501.585938 113.191406 478.691406 126.570312 C 416.46875 163.121094 364.851562 116.890625 300.789062 122.40625 C 287.59375 123.605469 275.324219 128.867188 263.515625 135.136719 C 225.234375 155.59375 192.253906 186.058594 147.667969 191.746094 C 102.601562 197.554688 55.613281 182.0625 21.84375 151.761719 C -39.058594 97.144531 -38.164062 7.925781 -12.660156 -64.117188 C 10.679688 -129.367188 48.8125 -178.222656 105.785156 -217.738281 C 121.808594 -228.761719 144.28125 -238.148438 155.695312 -254.035156 C 169.695312 -273.441406 161.492188 -296.113281 157.304688 -317.453125 C 133.464844 -438.859375 296.730469 -425.871094 366.679688 -398.097656 C 419.097656 -377.335938 469.636719 -370.828125 525.605469 -380.835938 C 573.882812 -388.894531 625.925781 -407.929688 674.878906 -395.1875 C 715.648438 -384.460938 752.367188 -356.238281 762.613281 -313.828125 C 771.367188 -278.101562 760.496094 -243.9375 736.496094 -217.183594 C 723.539062 -202.542969 709.1875 -187.75 704.804688 -168.738281 C 694.164062 -123.175781 739.242188 -90.628906 768.425781 -64.28125 C 797.78125 -37.667969 823.6875 -7.722656 820.105469 34.617188 Z M 820.105469 34.617188 " fill-opacity="1" fill-rule="nonzero"/></g></g></g></svg>