<svg xmlns="http://www.w3.org/2000/svg" xmlns:xlink="http://www.w3.org/1999/xlink" width="1080" zoomAndPan="magnify" viewBox="0 0 810 202.499994" height="270" preserveAspectRatio="xMidYMid meet" version="1.0"><defs><clipPath id="e0bbc7bc29"><path d="M 0.996094 0 L 809 0 L 809 88 L 0.996094 88 Z M 0.996094 0 " clip-rule="nonzero"/></clipPath></defs><g clip-path="url(#e0bbc7bc29)"><path fill="#673ab7" d="M -38.765625 -110.890625 C 7.980469 -162.570312 86.9375 -157.292969 173.015625 -151.839844 C 205.339844 -149.75 233.726562 -143.605469 261.878906 -146.386719 C 294.085938 -149.578125 324.324219 -160.945312 353.230469 -169.007812 C 403.105469 -182.871094 477.832031 -198.007812 534.601562 -201.546875 C 560.957031 -203.171875 593.398438 -201.546875 621.320312 -199.226562 C 666.445312 -195.457031 720.722656 -179.679688 751.019531 -165.875 C 768.6875 -157.8125 786.761719 -152.015625 798.695312 -142.851562 C 855.230469 -99.640625 852.394531 -41.175781 829.976562 17 C 826.09375 27.09375 814.625 41.417969 803.964844 48.609375 L 795.277344 58.296875 C 777.609375 69.375 758.261719 77.554688 737.984375 82.484375 C 666.15625 101.21875 545.433594 65.140625 454.371094 59.515625 C 419.90625 57.367188 385.667969 59.804688 354.679688 63.226562 C 323.6875 66.648438 297.734375 76.566406 261.472656 73.726562 C 209.453125 69.605469 159.402344 41.1875 133.046875 27.613281 C 105.414062 13.402344 80.738281 -0.574219 56.40625 -14.03125 L 18.871094 -25.574219 C 2.765625 -33.75 -18.722656 -51.5 -29.730469 -61.824219 C -37.957031 -69.59375 -45.542969 -83.515625 -44.90625 -92.796875 C -44.558594 -98.828125 -37.203125 -105.207031 -38.765625 -110.890625 " fill-opacity="1" fill-rule="nonzero"/></g></svg>