<svg xmlns="http://www.w3.org/2000/svg" xmlns:xlink="http://www.w3.org/1999/xlink" width="1080" zoomAndPan="magnify" viewBox="0 0 810 202.499994" height="270" preserveAspectRatio="xMidYMid meet" version="1.0"><defs><clipPath id="1fd1f84f27"><path d="M 0.996094 0 L 809 0 L 809 104 L 0.996094 104 Z M 0.996094 0 " clip-rule="nonzero"/></clipPath></defs><g clip-path="url(#1fd1f84f27)"><path fill="#673ab7" d="M -38.765625 -95.332031 C 7.980469 -147.007812 86.9375 -141.730469 173.015625 -136.277344 C 205.339844 -134.191406 233.726562 -128.042969 261.878906 -130.828125 C 294.085938 -134.015625 324.324219 -145.386719 353.230469 -153.445312 C 403.105469 -167.308594 477.832031 -182.449219 534.601562 -185.984375 C 560.957031 -187.609375 593.398438 -185.984375 621.320312 -183.664062 C 666.445312 -179.894531 720.722656 -164.121094 751.019531 -150.316406 C 768.6875 -142.253906 786.761719 -136.453125 798.695312 -127.289062 C 855.230469 -84.078125 852.394531 -25.613281 829.976562 32.5625 C 826.09375 42.652344 814.625 56.980469 803.964844 64.171875 L 795.277344 73.859375 C 777.609375 84.9375 758.261719 93.113281 737.984375 98.042969 C 666.15625 116.777344 545.433594 80.703125 454.371094 75.074219 C 419.90625 72.929688 385.667969 75.367188 354.679688 78.789062 C 323.6875 82.210938 297.734375 92.128906 261.472656 89.285156 C 209.453125 85.167969 159.402344 56.746094 133.046875 43.175781 C 105.414062 28.964844 80.738281 14.988281 56.40625 1.53125 L 18.871094 -10.011719 C 2.765625 -18.191406 -18.722656 -35.9375 -29.730469 -46.261719 C -37.957031 -54.035156 -45.542969 -67.953125 -44.90625 -77.234375 C -44.558594 -83.265625 -37.203125 -89.644531 -38.765625 -95.332031 " fill-opacity="1" fill-rule="nonzero"/></g></svg>