<svg xmlns="http://www.w3.org/2000/svg" xmlns:xlink="http://www.w3.org/1999/xlink" width="1080" zoomAndPan="magnify" viewBox="0 0 810 202.499994" height="270" preserveAspectRatio="xMidYMid meet" version="1.0"><defs><clipPath id="7974107355"><path d="M 0.996094 0 L 809 0 L 809 160 L 0.996094 160 Z M 0.996094 0 " clip-rule="nonzero"/></clipPath></defs><g clip-path="url(#7974107355)"><path fill="#673ab7" d="M -38.765625 -39.578125 C 7.980469 -91.257812 86.9375 -85.980469 173.015625 -80.527344 C 205.339844 -78.4375 233.726562 -72.292969 261.878906 -75.074219 C 294.085938 -78.265625 324.324219 -89.632812 353.230469 -97.695312 C 403.105469 -111.558594 477.832031 -126.695312 534.601562 -130.234375 C 560.957031 -131.859375 593.398438 -130.234375 621.320312 -127.914062 C 666.445312 -124.144531 720.722656 -108.367188 751.019531 -94.5625 C 768.6875 -86.5 786.761719 -80.703125 798.695312 -71.535156 C 855.230469 -28.328125 852.394531 30.136719 829.976562 88.3125 C 826.09375 98.40625 814.625 112.730469 803.964844 119.921875 L 795.277344 129.609375 C 777.609375 140.6875 758.261719 148.867188 737.984375 153.796875 C 666.15625 172.53125 545.433594 136.453125 454.371094 130.828125 C 419.90625 128.679688 385.667969 131.117188 354.679688 134.539062 C 323.6875 137.960938 297.734375 147.878906 261.472656 145.039062 C 209.453125 140.917969 159.402344 112.5 133.046875 98.925781 C 105.414062 84.71875 80.738281 70.738281 56.40625 57.28125 L 18.871094 45.742188 C 2.765625 37.5625 -18.722656 19.8125 -29.730469 9.488281 C -37.957031 1.71875 -45.542969 -12.203125 -44.90625 -21.484375 C -44.558594 -27.515625 -37.203125 -33.894531 -38.765625 -39.578125 " fill-opacity="1" fill-rule="nonzero"/></g></svg>